<?xml version="1.0" standalone="no"?>
<!DOCTYPE svg PUBLIC "-//W3C//DTD SVG 20010904//EN"
 "http://www.w3.org/TR/2001/REC-SVG-20010904/DTD/svg10.dtd">
<svg version="1.0" xmlns="http://www.w3.org/2000/svg"
 width="30px" height="30px" viewBox="0 0 980.000000 980.000000"
 preserveAspectRatio="xMidYMid meet">

<g transform="translate(0.000000,980.000000) scale(0.100000,-0.100000)"
fill="#000000" stroke="none">
<path d="M642 9789 c-78 -13 -218 -69 -287 -114 -84 -55 -195 -169 -243 -251
-23 -38 -56 -112 -74 -164 l-33 -95 0 -4265 0 -4265 33 -95 c54 -155 133 -270
247 -363 71 -57 215 -130 305 -154 61 -17 298 -18 4310 -18 l4245 0 79 23
c268 78 464 272 548 544 l23 73 3 4205 c2 3078 0 4226 -8 4285 -14 99 -63 231
-115 310 -55 84 -169 195 -251 243 -38 23 -112 56 -164 74 l-95 33 -4235 1
c-2421 1 -4258 -2 -4288 -7z m5958 -2077 c47 -11 114 -30 150 -42 169 -58 379
-194 487 -315 l51 -57 59 12 c195 40 461 138 701 259 78 39 142 66 142 61 0
-6 -16 -50 -36 -98 -90 -220 -241 -418 -449 -590 -44 -36 -84 -70 -90 -75 -6
-5 6 -6 30 -2 230 36 464 99 616 164 51 22 95 39 97 36 8 -7 -50 -103 -116
-191 -82 -109 -265 -294 -434 -438 -125 -107 -128 -110 -128 -150 0 -80 -21
-373 -36 -506 -227 -2025 -1561 -3423 -3509 -3679 -347 -46 -752 -52 -1035
-16 -419 52 -802 170 -1193 366 -214 108 -507 280 -447 264 49 -13 454 -18
560 -6 242 26 500 85 725 166 242 87 540 245 708 378 l59 46 -39 6 c-252 39
-414 84 -568 160 -315 154 -548 417 -680 768 l-25 68 82 -8 c112 -11 305 -8
403 7 127 18 128 19 41 51 -187 68 -394 182 -533 294 -292 234 -460 578 -489
1002 l-7 102 90 -39 c154 -66 392 -130 486 -130 30 0 30 0 -19 32 -75 50 -194
175 -263 278 -266 397 -352 940 -216 1354 32 99 68 181 97 219 12 16 30 1 203
-173 343 -346 614 -563 952 -763 391 -231 838 -392 1306 -471 149 -25 484 -63
491 -55 2 2 -3 36 -12 74 -24 105 -23 412 1 525 58 270 172 476 376 681 230
230 520 378 856 439 146 26 424 22 555 -8z"/>
</g>
</svg>
